# xmcd
#
# Track frame offsets:
#	150
#	22945
#	51617
#	74568
#	98773
#	131489
#	144025
#	159482
#	183057
#	210240
#	246149
#
# Disc length: 3580 seconds
#
# Revision: 3276835
# Processed by: cddbd v1.5.2PL0 Copyright (c) Steve Scherf et al.
# Submitted via: EZCDAudioConverter 8.0.2.1
#
DISCID=8d0dfa0b
DTITLE=Various Artist - Top Hits 60. Bướm Mơ
DYEAR=2013
DGENRE=Contemporary Pop
TTITLE0=Bằng Kiều - Rồi mai tôi đưa em
TTITLE1=Khánh Hà - V.A
TTITLE2=Thanh Hà - Vũng lầy của chúng ta
TTITLE3=Don Ho - LK Vũ Thành An
TTITLE4=Elvis Phương - LK Lam Phương
TTITLE5=Ý Lan - Mùa thu không trở lại
TTITLE6=Ngọc Anh - Lá thu vàng
TTITLE7=Quỳnh Vi - Bướm Mơ
TTITLE8=Ngọc Anh - LK Một thoáng Tây Hồ, CHiều phủ Tây Hồ
TTITLE9=Thế Sơn - LK Thà như giọt mưa
TTITLE10=Hợp Ca Thúy Nga Paris - Hát mãi bài tình ca
EXTD=
EXTT0=
EXTT1=
EXTT2=
EXTT3=
EXTT4=
EXTT5=
EXTT6=
EXTT7=
EXTT8=
EXTT9=
EXTT10=
PLAYORDER=
